<svg width="137" height="137" viewBox="0 0 137 137" fill="none" xmlns="http://www.w3.org/2000/svg">
<g clip-path="url(#clip0)">
<path d="M134.73 133.828L130.398 110.898C127.664 96.43 115.902 83.0139 101.092 80.1567L87.9771 77.6252C88.2632 76.4339 87.6999 75.1621 86.5541 74.6005C85.6915 74.1777 84.7135 74.2642 83.9552 74.7391C83.6664 74.2195 83.4545 73.6557 83.3427 73.063L82.2309 67.1889H96.3336C102.389 67.1889 107.315 62.2561 107.315 56.193V30.9993C107.315 23.0602 100.333 12.1091 94.7495 8.87275C92.7678 7.39277 90.3369 6.94833 88.1021 7.4677C87.2913 4.98698 85.3265 3.01253 82.8354 2.21916C75.6846 -0.0488255 68.3974 -0.00521027 67.847 0.0022819C65.997 0.00308463 64.068 0.128043 62.1136 0.373412C60.6473 0.557238 59.608 1.89539 59.7918 3.36145C59.9759 4.82778 61.3133 5.86812 62.7801 5.68322C64.5207 5.46488 66.2316 5.3541 67.8655 5.3541C67.8778 5.3541 67.8925 5.3541 67.9048 5.35383C67.973 5.35437 74.792 5.28266 81.2144 7.31973C82.7195 7.79922 83.5899 9.64123 82.9172 11.1014L78.7497 15.126C75.3376 18.3429 72.0886 20.7502 67.14 20.7502H59.547C49.4925 20.7502 41.1508 27.7969 41.1508 38.1754V41.0227C41.0836 48.6979 44.389 56.4526 49.8492 61.8381H40.6889C37.5864 61.8381 35.062 59.306 35.062 56.1938V30.1085C35.062 24.5351 37.0798 19.8076 41.6043 14.7793C41.9227 14.4252 42.3038 14.0501 42.7362 13.6643C43.8391 12.6806 43.9354 10.9893 42.9518 9.88633C41.9679 8.78391 40.2766 8.68705 39.1739 9.67093C38.5959 10.1866 38.0752 10.7008 37.6262 11.1996C32.2257 17.2014 29.7105 23.2096 29.7105 30.1085V56.1938C29.7105 62.2569 34.6353 67.1897 40.6889 67.1897H54.7705L53.6573 73.0643C53.5466 73.6503 53.3379 74.2085 53.0537 74.7233C52.2643 74.1726 51.2047 74.0664 50.2907 74.5392C49.1425 75.1338 48.6066 76.4438 48.9453 77.6412L35.9084 80.1578C21.1702 83.0011 9.32642 96.4937 6.60248 110.899L2.26986 133.828C2.12189 134.611 2.3306 135.419 2.83873 136.032C3.34713 136.646 4.1025 137 4.89908 137H132.101C132.897 137 133.653 136.646 134.161 136.032C134.669 135.419 134.878 134.611 134.73 133.828V133.828ZM60.027 68.1928C62.7601 69.086 65.644 69.5307 68.5191 69.5264C71.3817 69.5232 74.252 69.0758 76.9727 68.1843L78.084 74.0554C78.4586 76.0451 79.3697 77.8451 80.6575 79.3083C78.7104 81.2723 74.7585 84.1982 68.4865 84.1982C62.2177 84.1982 58.2776 81.275 56.3379 79.3123C57.6271 77.8492 58.5396 76.0486 58.9155 74.0584L60.027 68.1928ZM68.4862 89.5495C71.8122 89.5495 74.6461 88.906 77.0214 87.9638L68.8686 104.592L60.3331 88.1108C62.6271 88.9724 65.3355 89.5495 68.4862 89.5495ZM91.572 13.1789C96.6771 16.6451 101.963 25.2003 101.963 30.999V56.1928C101.963 59.305 99.4375 61.837 96.3333 61.837H87.3633C92.6894 56.684 95.8236 49.4164 95.8236 42.0015V39.8997C95.8236 31.9759 91.3028 24.1233 83.3868 21.812C82.1198 21.4425 81.7541 19.9745 82.4535 18.9877C85.7453 15.8862 87.8431 13.5947 87.8431 13.5947C88.7791 12.4727 90.4102 12.2935 91.572 13.1789V13.1789ZM46.5023 38.1744C46.5023 30.7603 52.4444 26.1007 59.547 26.1007H67.14C70.7561 26.1007 74.3772 25.111 77.4718 23.2344C78.4765 25.2881 80.2342 26.3894 82.3347 27.0926C87.6539 28.9274 90.472 34.527 90.472 39.8994V42.0013C90.472 53.719 80.5141 64.0379 68.7415 64.1717C56.0979 64.3132 46.5018 52.9452 46.5018 40.7185V38.1744H46.5023ZM11.8606 111.892C14.2766 99.1157 24.3456 88.4763 36.9843 85.3991L50.5235 82.7854C50.8256 82.7274 51.1301 82.6345 51.4217 82.5409L64.5346 107.861H59.5775C58.0997 107.861 56.9017 109.059 56.9017 110.536V131.649H28.9985V116.146C28.9985 114.669 27.8005 113.471 26.3227 113.471C24.8449 113.471 23.6469 114.669 23.6469 116.146V131.649H8.12794L11.8606 111.892ZM62.2533 131.649V113.212H75.6145V131.649H62.2533ZM113.555 131.649V116.147C113.555 114.669 112.357 113.471 110.879 113.471C109.401 113.471 108.203 114.669 108.203 116.147V131.649H80.966V110.537C80.966 109.059 79.7681 107.861 78.2903 107.861H73.2261L85.6331 82.5566C85.9079 82.6431 86.1926 82.7311 86.4765 82.7857L100.016 85.3994C112.73 88.4961 122.71 99.0357 125.139 111.892L128.872 131.649H113.555V131.649Z" fill="#292929"/>
<path d="M65.7207 50.9806H70.9414C72.4192 50.9806 73.6172 49.7824 73.6172 48.3048C73.6172 46.8272 72.4192 45.629 70.9414 45.629H69.6468L71.6539 40.5196C72.1944 39.1443 71.5172 37.5912 70.1419 37.0507C68.767 36.5105 67.2135 37.1872 66.673 38.5628L63.23 47.3263C62.9065 48.1499 63.0112 49.0802 63.5094 49.8115C64.0079 50.5434 64.8358 50.9806 65.7207 50.9806V50.9806Z" fill="#292929"/>
<path d="M51.2522 8.47178C53.6374 8.47178 54.8326 5.42246 53.0487 3.81404C52.1635 3.01586 50.8275 2.90481 49.8204 3.53764C48.841 4.1528 48.3687 5.37349 48.6684 6.48876C48.9788 7.64523 50.0534 8.47178 51.2522 8.47178Z" fill="#292929"/>
</g>
<defs>
<clipPath id="clip0">
<rect width="137" height="137" fill="white"/>
</clipPath>
</defs>
</svg>
