<svg width="137" height="137" viewBox="0 0 137 137" fill="none" xmlns="http://www.w3.org/2000/svg">
<path d="M137 16.7905H105.752C103.826 13.4218 100.2 11.1473 96.0501 11.1473C94.5324 11.1473 93.0848 11.4526 91.7657 12.0034C89.9439 8.3106 86.1393 5.76652 81.7503 5.76652C80.2923 5.76652 78.8979 6.04768 77.6186 6.5588C75.8615 2.6946 71.9649 0 67.4506 0C62.9373 0 59.0386 2.6946 57.2805 6.56089C56.0012 6.04768 54.6048 5.76652 53.1467 5.76652C47.0373 5.76652 42.0578 10.6979 41.9826 16.7905H21.909L0 29.3134V34.3493L21.909 46.8722H29.9959V62.8349L46.8262 83.3161V88.9969H40.9123V137H48.9396V97.0242H96.4159V137H104.443V88.9969H98.2252V86.6336L107.213 68.2188V46.8722H137V16.7905ZM41.9826 38.8448H28.7427V24.8179H41.9826V38.8448ZM20.7154 26.7181V36.9446L11.7703 31.8313L20.7154 26.7181ZM99.1858 66.3646L90.1979 84.7763V88.9969H54.8535V80.4417L38.0233 59.9615V46.8722H41.9826V53.1602H50.0099V16.9295C50.0099 16.8846 50.0099 16.8365 50.0162 16.7905C50.0883 15.1265 51.4628 13.7939 53.1467 13.7939C54.8295 13.7939 56.205 15.1265 56.2771 16.7905C56.2823 16.8365 56.2823 16.8846 56.2823 16.9295V31.3599H64.3149V11.163C64.3149 9.43526 65.7228 8.02734 67.4506 8.02734C69.1794 8.02734 70.5873 9.43526 70.5873 11.163V31.3599H78.6147V16.9295C78.6147 16.8846 78.6147 16.8365 78.6199 16.7905C78.692 15.1265 80.0675 13.7939 81.7503 13.7939C83.4332 13.7939 84.8087 15.1265 84.8808 16.7905C84.886 16.8365 84.886 16.8846 84.886 16.9295V31.3599H92.9134V22.3104C92.9134 20.5826 94.3213 19.1747 96.0501 19.1747C97.781 19.1747 99.1858 20.5826 99.1858 22.3104V66.3646ZM107.213 24.8179H113.619V38.8448H107.213V24.8179ZM128.973 38.8448H121.647V24.8179H128.973V38.8448Z" fill="#73D800"/>
<path d="M55.7639 103.406H63.7913V111.434H55.7639V103.406Z" fill="#73D800"/>
</svg>
