<svg width="137" height="137" viewBox="0 0 137 137" fill="none" xmlns="http://www.w3.org/2000/svg">
<path d="M76.1775 131.609C69.3285 131.501 62.4969 131.64 55.7108 131.841C40.7904 132.088 18.9904 134.932 14.5546 116.208C10.1604 99.8878 13.5656 82.6913 13.0085 66.0369C12.9055 52.4641 12.1407 38.8714 12.1822 25.3401C11.3899 15.7327 17.5429 8.63202 27.3817 8.99501C42.6626 10.263 58.0361 10.6695 73.3542 9.86338C78.4692 9.63066 83.7012 9.21947 88.8073 8.76862C94.6298 8.05393 101.438 7.24504 106.804 9.53675C122.094 14.7393 111.356 54.8838 118.636 55.2815C119.924 55.2917 120.977 54.2565 120.988 52.9686C121.022 49.6293 121.203 46.2891 121.385 42.9414C121.764 36.0223 122.4 29.1893 121.742 22.1448C120.7 5.54217 108.695 -1.30897 93.107 0.20497C88.1022 0.711177 82.9785 1.1108 77.9577 1.35977C64.5474 2.14414 51.12 2.27855 37.7008 1.78446C27.8986 1.1769 17.7703 0.182662 10.5499 8.34394C6.30937 12.9758 4.98271 19.3948 5.43906 25.4732C6.08325 45.9718 8.01609 65.9133 7.02406 86.251C6.83843 103 5.52334 127.228 24.3907 134.456C41.171 139.508 58.9438 135.307 76.1039 136.269C77.3907 136.288 78.4502 135.262 78.4703 133.975C78.4904 132.689 77.4642 131.63 76.1775 131.609V131.609Z" fill="#292929"/>
<path d="M39.2343 69.0716C37.3472 59.6746 23.5154 62.8239 25.218 72.0238C27.0751 80.8606 41.1575 78.0368 39.2343 69.0716V69.0716Z" fill="#292929"/>
<path d="M53.0936 76.5124C57.7563 76.722 60.7115 71.46 59.3011 67.312C56.0176 59.3294 45.8274 63.1533 46.7555 71.2735C47.0659 74.4063 50.0073 76.7534 53.0936 76.5124Z" fill="#292929"/>
<path d="M39.1387 88.3446C35.2183 80.0209 23.0875 85.6932 26.0195 94.1448C29.2661 102.666 42.8496 96.7417 39.1387 88.3446Z" fill="#292929"/>
<path d="M48.8159 95.9493C55.7935 101.41 64.7501 92.8256 59.0064 85.7952C52.0382 78.7118 41.634 89.0244 48.8159 95.9493Z" fill="#292929"/>
<path d="M28.7042 117.624C34.3036 119.727 40.9421 114.221 38.1549 108.345C36.2072 103.992 29.743 103.268 26.5706 106.66C23.2094 109.818 23.9299 116.356 28.7042 117.624V117.624Z" fill="#292929"/>
<path d="M53.2533 118.263C58.314 118.964 62.4634 113.676 60.243 108.967C59.3752 106.992 57.485 105.594 55.3864 105.186C50.1673 103.703 45.5035 109.301 47.2747 114.21C48.0582 116.745 50.7336 118.144 53.2533 118.263V118.263Z" fill="#292929"/>
<path d="M100.883 31.2809C100.01 22.3611 91.229 23.4812 84.5321 22.9604C67.058 22.0637 49.3606 23.6685 31.9078 23.6148C28.7194 23.4876 29.0366 26.711 29.249 28.9451C29.3751 31.927 29.4889 35.2581 29.5767 38.2342C29.6175 41.6862 28.4841 45.8477 31.2182 48.6932C35.7338 51.603 41.223 50.4875 46.2215 50.2722C57.3473 49.6522 68.4968 49.983 79.6658 49.9398C85.0824 49.9436 90.5474 49.8337 95.9664 49.4377C101.058 47.8276 100.734 41.4452 100.675 37.2091C100.58 35.0656 101.11 33.4316 100.883 31.2809V31.2809ZM94.6218 44.9333C94.6758 44.9171 94.7342 44.9182 94.7912 44.9284L94.6218 44.9333ZM94.9013 43.838C94.8074 44.3698 94.7832 44.5959 94.5529 44.9353C79.0211 45.6731 63.5336 44.4648 47.9549 44.8281C43.8397 44.7488 39.2638 45.7772 35.3466 44.3894C35.3923 40.4226 35.8539 34.6613 35.7476 30.5532C53.2833 31.55 71.1071 30.7152 88.6335 30.9303C89.0968 30.9708 93.1051 30.9281 93.4582 31.128C94.1894 31.5048 94.112 32.889 94.1938 33.7904L94.2233 33.4701C93.8735 36.9582 95.2092 40.5358 94.9013 43.838V43.838Z" fill="#292929"/>
<path d="M130.359 84.0111C127.386 73.1497 116.493 66.4164 105.698 65.656C99.9576 64.9011 93.9424 66.0958 89.034 69.2055C73.7321 79.1289 72.7158 103.19 84.832 116.036C89.2788 121.629 94.5191 126.435 99.5015 131.475C100.852 132.779 102.189 134.415 103.625 135.593C104.498 135.95 105.558 135.874 106.447 135.57C111.104 133.668 113.449 128.858 116.657 125.403C127.548 115.063 134.699 99.0246 130.359 84.0111ZM104.8 131.187C104.805 131.187 104.854 131.181 104.858 131.181C104.838 131.187 104.813 131.192 104.8 131.187ZM125.518 100.686C123.749 108.982 119.054 116.5 113.005 122.344C110.524 125.128 108.602 128.612 105.648 130.807C101.815 124.783 96.8273 119.5 92.6055 113.784C90.6297 110.983 88.2904 108.407 87.0229 105.144C82.1294 93.9939 85.2264 77.0583 98.0551 73.0679C99.4043 72.6509 100.893 72.3157 102.304 72.2491C119.401 71.1097 129.472 84.2625 125.518 100.686Z" fill="#292929"/>
<path d="M100.302 97.4405C101.156 105.573 113.063 102.987 111.125 95.3524C109.562 87.719 99.0691 89.7072 100.302 97.4405Z" fill="#292929"/>
</svg>
