<svg width="137" height="137" viewBox="0 0 137 137" fill="none" xmlns="http://www.w3.org/2000/svg">
<path d="M48.6168 94.0973L44.6606 90.733C39.0664 85.9752 35.8578 79.0345 35.8578 71.6906V58.1201C35.8578 52.5095 31.293 47.9446 25.6824 47.9446C20.0718 47.9446 15.5069 52.5092 15.5069 58.1201V84.8616C15.5069 90.4111 17.1062 95.8039 20.1323 100.456L23.9576 106.337C24.3437 106.931 24.9492 107.347 25.6417 107.495L25.7969 107.528C27.2424 107.837 28.6637 106.915 28.9725 105.471C29.1855 104.473 28.8128 103.487 28.086 102.87L24.6182 97.5386C22.1584 93.7567 20.8582 89.3729 20.8582 84.8618V58.1203C20.8582 55.4603 23.0224 53.2959 25.6826 53.2959C28.3426 53.2959 30.5071 55.4601 30.5071 58.1203V71.6908C30.5071 80.6068 34.4025 89.0331 41.1944 94.8096L45.1506 98.1736C50.1021 102.385 52.9419 108.528 52.9419 115.027V131.649H28.2945L15.1171 114.729C8.82308 106.648 5.35687 96.5563 5.35634 86.3124V24.8928C5.35634 22.0899 7.63664 19.8093 10.4398 19.809C11.798 19.809 13.0746 20.3375 14.0347 21.2978C14.9948 22.2582 15.5238 23.5348 15.5238 24.8928V34.0565C15.5238 35.5341 16.7217 36.732 18.1993 36.732C19.6769 36.732 20.8748 35.5338 20.8748 34.0565V24.8928C20.8748 22.1054 19.7892 19.485 17.8185 17.514C15.8475 15.5433 13.2266 14.4577 10.4395 14.458C4.68579 14.4583 0.00531006 19.1396 0.00531006 24.8928V86.3124C0.00584521 97.7417 3.87315 109.001 10.8944 118.016L24.8754 135.968C25.3824 136.619 26.1616 136.999 26.9863 136.999H55.6169C57.0947 136.999 58.2924 135.801 58.2924 134.324V115.028C58.2924 106.956 54.7657 99.3268 48.6168 94.0973Z" fill="#73D800"/>
<path d="M126.56 14.458C126.56 14.458 126.56 14.458 126.56 14.458C123.773 14.458 121.153 15.5436 119.182 17.514C117.211 19.4847 116.125 22.1054 116.125 24.8928V33.3209C116.125 34.7985 117.323 35.9964 118.801 35.9964C120.279 35.9964 121.476 34.7982 121.476 33.3209V24.8928C121.476 23.5345 122.005 22.2582 122.966 21.2978C123.926 20.338 125.202 19.809 126.56 19.809H126.56C129.363 19.8093 131.644 22.0896 131.644 24.8928V86.3113C131.643 96.5555 128.177 106.647 121.884 114.728L108.706 131.648H84.0589V115.026C84.0589 108.526 86.8987 102.384 91.8502 98.1728L95.8061 94.8082C102.598 89.032 106.493 80.6057 106.493 71.6898V58.1193C106.493 55.4593 108.658 53.2948 111.318 53.2948C113.978 53.2948 116.142 55.459 116.142 58.1193V84.8608C116.142 89.3721 114.842 93.7556 112.382 97.5375L108.914 102.869C108.188 103.486 107.815 104.472 108.028 105.47C108.337 106.915 109.757 107.835 111.204 107.527L111.359 107.494C112.051 107.346 112.657 106.93 113.043 106.336L116.868 100.455C119.894 95.8028 121.494 90.4103 121.494 84.8605V58.119C121.494 52.5084 116.929 47.9435 111.318 47.9435C105.708 47.9435 101.143 52.5082 101.143 58.119V71.6895C101.143 79.0334 97.9341 85.9742 92.3399 90.7322L88.384 94.0965C82.2351 99.326 78.7084 106.955 78.7084 115.026V134.324C78.7084 135.801 79.9063 136.999 81.3839 136.999H110.014C110.839 136.999 111.618 136.619 112.125 135.968L126.106 118.016C133.127 109.001 136.995 97.7417 136.995 86.3121V24.8928C136.995 19.1396 132.314 14.4583 126.56 14.458Z" fill="#73D800"/>
<path d="M120.692 40.5267C120.195 40.0287 119.504 39.7427 118.801 39.7427C118.097 39.7427 117.407 40.029 116.909 40.5267C116.412 41.0244 116.125 41.7147 116.125 42.4182C116.125 43.1217 116.411 43.8123 116.909 44.3094C117.407 44.8074 118.097 45.0937 118.801 45.0937C119.504 45.0937 120.195 44.8074 120.692 44.3094C121.19 43.812 121.476 43.1217 121.476 42.4182C121.476 41.7147 121.19 41.0246 120.692 40.5267Z" fill="#73D800"/>
<path d="M103.076 36.1358C104.775 33.3744 104.349 29.8568 102.039 27.5808L99.367 24.9486C99.0398 24.6264 98.8709 24.1788 98.9036 23.7204L99.1711 19.9604C99.4023 16.7109 97.3856 13.785 94.2667 12.845L90.728 11.7781C90.2854 11.6446 89.9261 11.3249 89.7422 10.9005L88.2612 7.48405C86.9773 4.52249 83.7469 2.82417 80.5804 3.44629L76.9908 4.15083C76.5346 4.241 76.0652 4.12434 75.7035 3.83214L72.8463 1.52562C70.3278 -0.508245 66.6719 -0.507442 64.1535 1.52535L61.2955 3.83268C60.9337 4.12407 60.4646 4.2402 60.0087 4.15136L56.4183 3.44656C53.2526 2.82578 50.0221 4.52276 48.738 7.48351L47.2562 10.9008C47.0724 11.3251 46.713 11.6446 46.2704 11.7781L42.7325 12.8447C39.6139 13.7852 37.5971 16.7112 37.8283 19.9604L38.0959 23.7204C38.1286 24.1788 37.9597 24.6264 37.6325 24.9486L34.9602 27.581C32.6507 29.8565 32.2242 33.3744 33.9233 36.136L35.8991 39.3467C36.1394 39.7374 36.1966 40.2118 36.0564 40.6482L34.9002 44.2437C33.9059 47.3353 35.1622 50.653 37.9549 52.3109L41.157 54.2118C41.5533 54.447 41.8249 54.8424 41.9022 55.2965L42.5326 58.9931C43.082 62.215 45.7452 64.5785 49.0096 64.7407L52.6781 64.9232C53.141 64.9462 53.5675 65.1712 53.848 65.5402L56.0844 68.4828C57.4212 70.2418 59.4992 71.2075 61.616 71.2075C62.5994 71.2075 63.5905 70.9991 64.5198 70.5651L67.8353 69.0168C68.2568 68.8202 68.7406 68.8202 69.162 69.0166L72.4778 70.5648C75.4089 71.9334 78.9567 71.0574 80.914 68.4822L83.1496 65.5402C83.4301 65.1712 83.8566 64.9462 84.32 64.9232L87.9888 64.7407C91.2532 64.5785 93.9167 62.215 94.4658 58.9934L95.0962 55.2965C95.1735 54.8422 95.4454 54.447 95.8411 54.2118L99.0438 52.3109C101.836 50.653 103.093 47.3355 102.098 44.2437L100.942 40.6485C100.802 40.2118 100.859 39.7374 101.1 39.347L103.076 36.1358ZM98.5185 33.3308L96.5427 36.5417C95.4818 38.2652 95.2289 40.359 95.8484 42.2855L97.0046 45.881C97.2299 46.5815 96.9452 47.3331 96.3126 47.7085L93.11 49.6094C91.3616 50.6473 90.1634 52.392 89.8217 54.3961L89.1913 58.0932C89.0669 58.8229 88.4635 59.3586 87.7236 59.3955L84.0554 59.578C82.0111 59.6792 80.1279 60.6722 78.8895 62.3017L76.6542 65.2435C76.2105 65.8276 75.4065 66.0259 74.7429 65.7157L71.4268 64.167C69.5668 63.2984 67.4329 63.2984 65.5727 64.167V64.1673L62.2563 65.7157C61.5922 66.0264 60.7887 65.8273 60.3456 65.244L58.1091 62.3012C56.8705 60.6716 54.9878 59.6792 52.9444 59.578L49.2764 59.3955C48.5365 59.3586 47.9332 58.8232 47.8087 58.093L47.1783 54.3961C46.8366 52.392 45.6381 50.6473 43.89 49.6094L40.6877 47.7085C40.0551 47.3329 39.7704 46.5812 39.9957 45.8807L41.1519 42.2853C41.7714 40.359 41.5182 38.2649 40.4576 36.5414L38.4818 33.3308C38.0967 32.7049 38.1933 31.9078 38.7167 31.3924L41.3887 28.7603C42.8328 27.3375 43.5786 25.362 43.4344 23.3402L43.1668 19.5802C43.1143 18.8438 43.5714 18.181 44.278 17.9678L47.8157 16.9012C49.7687 16.3123 51.3547 14.9013 52.1665 13.0291L53.6484 9.61183C53.8991 9.03359 54.477 8.66835 55.0911 8.66835C55.1899 8.66835 55.2894 8.67798 55.3884 8.69725L58.9793 9.40231C60.9923 9.79672 63.062 9.28404 64.6576 7.99592L67.5156 5.6886C68.0861 5.22756 68.9145 5.22783 69.485 5.68886L72.343 7.99485C73.9388 9.28378 76.009 9.79619 78.0218 9.40124L81.6113 8.69671C82.3292 8.55704 83.0608 8.94047 83.3517 9.61183L84.8327 13.0283C85.6443 14.9008 87.2302 16.3125 89.1838 16.9012L92.7222 17.968C93.4289 18.181 93.8859 18.8438 93.8335 19.5802L93.5659 23.3402C93.4217 25.362 94.1677 27.3381 95.6116 28.7603L98.2833 31.3922C98.8067 31.9078 98.9033 32.7049 98.5185 33.3308Z" fill="#73D800"/>
<path d="M74.6885 23.4813C73.4015 22.7551 71.7698 23.2089 71.0433 24.496L58.6349 46.4764C57.9085 47.7635 58.3625 49.3952 59.6496 50.1216C60.0654 50.3563 60.5168 50.4679 60.9626 50.4679C61.8964 50.4679 62.8035 49.9782 63.2948 49.107L75.7032 27.1265C76.4297 25.8395 75.9756 24.2078 74.6885 23.4813Z" fill="#73D800"/>
<path d="M76.5637 37.5366C72.7267 37.5366 69.6051 40.6582 69.6051 44.4953C69.6051 48.3323 72.7267 51.4542 76.5637 51.4542C80.4008 51.4542 83.5224 48.3323 83.5224 44.4953C83.5224 40.6582 80.4008 37.5366 76.5637 37.5366ZM76.5637 46.1029C75.6772 46.1029 74.9561 45.3815 74.9561 44.495C74.9561 43.6085 75.6772 42.8874 76.5637 42.8874C77.4502 42.8874 78.1713 43.6085 78.1713 44.495C78.1711 45.382 77.4502 46.1029 76.5637 46.1029Z" fill="#73D800"/>
<path d="M60.436 19.7495C56.5989 19.7495 53.4774 22.8713 53.4774 26.7084C53.4774 30.5455 56.5989 33.6671 60.436 33.6671C64.2731 33.6671 67.3946 30.5455 67.3946 26.7084C67.3946 22.8713 64.2731 19.7495 60.436 19.7495ZM60.436 28.3158C59.5495 28.3158 58.8284 27.5946 58.8284 26.7081C58.8284 25.8214 59.5495 25.1003 60.436 25.1003C61.3225 25.1003 62.0436 25.8217 62.0436 26.7081C62.0436 27.5946 61.3225 28.3158 60.436 28.3158Z" fill="#73D800"/>
<path d="M20.0908 42.2654C19.5931 41.7675 18.9028 41.4814 18.1993 41.4814C17.4956 41.4814 16.8052 41.7678 16.3078 42.2654C15.8104 42.7631 15.5238 43.4535 15.5238 44.157C15.5238 44.8604 15.8101 45.551 16.3078 46.0482C16.8055 46.5462 17.4959 46.8325 18.1993 46.8325C18.9028 46.8325 19.5931 46.5462 20.0908 46.0482C20.5885 45.5508 20.8748 44.8604 20.8748 44.157C20.8748 43.4535 20.5885 42.7634 20.0908 42.2654Z" fill="#73D800"/>
</svg>
