<svg width="30" height="30" viewBox="0 0 30 30" fill="none" xmlns="http://www.w3.org/2000/svg">
<path d="M13.3978 1.36545C13.4466 1.36545 13.4862 1.32583 13.4862 1.27696C13.4862 1.22809 13.4466 1.18848 13.3978 1.18848C13.3489 1.18848 13.3093 1.22809 13.3093 1.27696C13.3093 1.32583 13.3489 1.36545 13.3978 1.36545Z" fill="#292929"/>
<path d="M13.6557 1.36545C13.7045 1.36545 13.7441 1.32583 13.7441 1.27696C13.7441 1.22809 13.7045 1.18848 13.6557 1.18848C13.6068 1.18848 13.5672 1.22809 13.5672 1.27696C13.5672 1.32583 13.6068 1.36545 13.6557 1.36545Z" fill="#292929"/>
<path d="M13.913 1.36545C13.9619 1.36545 14.0015 1.32583 14.0015 1.27696C14.0015 1.22809 13.9619 1.18848 13.913 1.18848C13.8641 1.18848 13.8245 1.22809 13.8245 1.27696C13.8245 1.32583 13.8641 1.36545 13.913 1.36545Z" fill="#292929"/>
<path d="M14.1704 1.36545C14.2192 1.36545 14.2589 1.32583 14.2589 1.27696C14.2589 1.22809 14.2192 1.18848 14.1704 1.18848C14.1215 1.18848 14.0819 1.22809 14.0819 1.27696C14.0819 1.32583 14.1215 1.36545 14.1704 1.36545Z" fill="#292929"/>
<path d="M14.4282 1.36545C14.4771 1.36545 14.5167 1.32583 14.5167 1.27696C14.5167 1.22809 14.4771 1.18848 14.4282 1.18848C14.3794 1.18848 14.3398 1.22809 14.3398 1.27696C14.3398 1.32583 14.3794 1.36545 14.4282 1.36545Z" fill="#292929"/>
<path d="M14.6861 1.36545C14.735 1.36545 14.7746 1.32583 14.7746 1.27696C14.7746 1.22809 14.735 1.18848 14.6861 1.18848C14.6373 1.18848 14.5976 1.22809 14.5976 1.27696C14.5976 1.32583 14.6373 1.36545 14.6861 1.36545Z" fill="#292929"/>
<path d="M14.9436 1.36545C14.9924 1.36545 15.032 1.32583 15.032 1.27696C15.032 1.22809 14.9924 1.18848 14.9436 1.18848C14.8947 1.18848 14.8551 1.22809 14.8551 1.27696C14.8551 1.32583 14.8947 1.36545 14.9436 1.36545Z" fill="#292929"/>
<path d="M15.2009 1.36545C15.2498 1.36545 15.2894 1.32583 15.2894 1.27696C15.2894 1.22809 15.2498 1.18848 15.2009 1.18848C15.1521 1.18848 15.1124 1.22809 15.1124 1.27696C15.1124 1.32583 15.1521 1.36545 15.2009 1.36545Z" fill="#292929"/>
<path d="M15.4583 1.36545C15.5071 1.36545 15.5468 1.32583 15.5468 1.27696C15.5468 1.22809 15.5071 1.18848 15.4583 1.18848C15.4094 1.18848 15.3698 1.22809 15.3698 1.27696C15.3698 1.32583 15.4094 1.36545 15.4583 1.36545Z" fill="#292929"/>
<path d="M15.7172 1.36545C15.7661 1.36545 15.8057 1.32583 15.8057 1.27696C15.8057 1.22809 15.7661 1.18848 15.7172 1.18848C15.6683 1.18848 15.6287 1.22809 15.6287 1.27696C15.6287 1.32583 15.6683 1.36545 15.7172 1.36545Z" fill="#292929"/>
<path d="M15.9746 1.36545C16.0234 1.36545 16.063 1.32583 16.063 1.27696C16.063 1.22809 16.0234 1.18848 15.9746 1.18848C15.9257 1.18848 15.8861 1.22809 15.8861 1.27696C15.8861 1.32583 15.9257 1.36545 15.9746 1.36545Z" fill="#292929"/>
<path d="M16.2319 1.36545C16.2808 1.36545 16.3204 1.32583 16.3204 1.27696C16.3204 1.22809 16.2808 1.18848 16.2319 1.18848C16.183 1.18848 16.1434 1.22809 16.1434 1.27696C16.1434 1.32583 16.183 1.36545 16.2319 1.36545Z" fill="#292929"/>
<path d="M16.4893 1.36545C16.5382 1.36545 16.5778 1.32583 16.5778 1.27696C16.5778 1.22809 16.5382 1.18848 16.4893 1.18848C16.4404 1.18848 16.4008 1.22809 16.4008 1.27696C16.4008 1.32583 16.4404 1.36545 16.4893 1.36545Z" fill="#292929"/>
<path d="M16.7471 1.36545C16.796 1.36545 16.8356 1.32583 16.8356 1.27696C16.8356 1.22809 16.796 1.18848 16.7471 1.18848C16.6983 1.18848 16.6587 1.22809 16.6587 1.27696C16.6587 1.32583 16.6983 1.36545 16.7471 1.36545Z" fill="#292929"/>
<path d="M21.5816 0H8.32541C7.25391 0 6.38576 0.870927 6.38576 1.94571V28.0542C6.38576 29.129 7.25397 29.9999 8.32541 29.9999H21.5811C22.6526 29.9999 23.5207 29.129 23.5207 28.0542V1.94571C23.5213 0.870927 22.6531 0 21.5816 0ZM20.2255 1.15545C20.3436 1.15545 20.4397 1.25187 20.4397 1.37039C20.4397 1.48945 20.3431 1.58532 20.2255 1.58532C20.1068 1.58532 20.0112 1.4889 20.0112 1.37039C20.0106 1.25187 20.1068 1.15545 20.2255 1.15545ZM12.6591 0.969937H17.4496C17.6193 0.969937 17.7558 1.10746 17.7558 1.27655C17.7558 1.4462 17.6193 1.58317 17.4496 1.58317H12.6591C12.4894 1.58317 12.3528 1.44565 12.3528 1.27655C12.3534 1.10752 12.4894 0.969937 12.6591 0.969937ZM10.7047 28.7203H10.233C10.2015 28.7203 10.1763 28.6944 10.1763 28.6628C10.1763 28.6318 10.2015 28.6054 10.233 28.6054H10.7047C10.7367 28.6054 10.7619 28.6318 10.7619 28.6628C10.7614 28.6944 10.7362 28.7203 10.7047 28.7203ZM10.7047 28.4894H10.233C10.2015 28.4894 10.1763 28.4642 10.1763 28.4325C10.1763 28.401 10.2015 28.3751 10.233 28.3751H10.7047C10.7367 28.3751 10.7619 28.401 10.7619 28.4325C10.7614 28.4642 10.7362 28.4894 10.7047 28.4894ZM11.1017 28.6396C11.1017 28.7076 11.0471 28.7629 10.9794 28.7629C10.9116 28.7629 10.8564 28.7076 10.8564 28.6396V28.2334H10.0807V28.6396C10.0807 28.7076 10.0261 28.7629 9.9583 28.7629C9.89057 28.7629 9.83543 28.7076 9.83543 28.6396V28.1106C9.83543 28.0427 9.89057 27.9873 9.9583 27.9873H10.9794C11.0471 27.9873 11.1017 28.0427 11.1017 28.1106V28.6396ZM16.489 28.6017C16.489 28.8703 16.2716 29.088 16.0037 29.088H13.8823C13.6139 29.088 13.397 28.8703 13.397 28.6017V28.1759C13.397 27.9072 13.6139 27.6897 13.8823 27.6897H16.0037C16.2716 27.6897 16.489 27.9072 16.489 28.1759V28.6017ZM19.6556 28.7861H19.2706C19.2029 28.7861 19.1482 28.7308 19.1482 28.6628C19.1482 28.5948 19.2028 28.54 19.2706 28.54H19.6556C19.7386 28.54 19.8058 28.4752 19.8058 28.3957C19.8058 28.3161 19.7385 28.2519 19.6556 28.2519H19.331C19.3189 28.2687 19.3037 28.2772 19.2764 28.2792C19.2696 28.2829 19.258 28.2777 19.2497 28.274L19.0495 28.1891C19.0253 28.1786 19.0091 28.1549 19.0091 28.1285C19.0091 28.1022 19.0248 28.0779 19.049 28.0679L19.2492 27.9831C19.2733 27.9726 19.3022 27.9784 19.3211 27.9973C19.3237 28 19.3264 28.0026 19.3285 28.0057H19.6557C19.8737 28.0057 20.0506 28.1812 20.0506 28.3962C20.0505 28.6112 19.8736 28.7861 19.6556 28.7861ZM22.2276 27.0812H7.51706V3.00001H22.2276V27.0812V27.0812Z" fill="#292929"/>
</svg>
