<svg width="30" height="30" viewBox="0 0 30 30" fill="none" xmlns="http://www.w3.org/2000/svg">
<path d="M15 0C6.72915 0 0 6.72915 0 15C0 23.2708 6.72915 29.9999 15 29.9999C23.2708 29.9999 29.9999 23.2708 29.9999 15C29.9999 6.72915 23.2709 0 15 0ZM15 28.6956C7.4478 28.6956 1.30433 22.5521 1.30433 15C1.30433 7.4478 7.4478 1.30433 15 1.30433C22.5521 1.30433 28.6956 7.4478 28.6956 15C28.6956 22.5521 22.5521 28.6956 15 28.6956Z" fill="#292929"/>
<path d="M15 6.52148C14.64 6.52148 14.3478 6.81368 14.3478 7.17368V22.8258C14.3478 23.1858 14.64 23.478 15 23.478C15.36 23.478 15.6522 23.1858 15.6522 22.8258V7.17362C15.6522 6.81362 15.36 6.52148 15 6.52148Z" fill="#292929"/>
<path d="M20.6792 11.9296L15.4618 6.71225C15.2074 6.4579 14.7939 6.4579 14.5396 6.71225L9.32223 11.9296C9.06788 12.184 9.06788 12.5975 9.32223 12.8518C9.57658 13.1062 9.99008 13.1062 10.2444 12.8518L15.0001 8.09618L19.7557 12.8532C19.8835 12.9797 20.0504 13.0436 20.2174 13.0436C20.3844 13.0436 20.5513 12.9797 20.6792 12.8519C20.9335 12.5974 20.9335 12.184 20.6792 11.9296Z" fill="#292929"/>
</svg>
