<svg width="30" height="30" viewBox="0 0 30 30" fill="none" xmlns="http://www.w3.org/2000/svg">
<path d="M18.1256 0H11.8744C5.32688 0 0 4.86812 0 10.852V15.9995C0 20.4557 2.99563 24.4606 7.5 26.0917V29.4287C7.5 29.6549 7.64563 29.8595 7.87188 29.9509C7.95313 29.984 8.03938 30 8.125 30C8.27688 30 8.4275 29.9492 8.54437 29.852L12.1688 26.8515H18.1256C24.6731 26.8515 30 21.9834 30 15.9995V10.852C30 4.86812 24.6731 0 18.1256 0ZM28.75 15.9995C28.75 21.3532 23.9844 25.7089 18.1256 25.7089H11.9275C11.7725 25.7089 11.6231 25.7615 11.5081 25.8569L8.75 28.1404V25.6958C8.75 25.4535 8.58313 25.2376 8.33313 25.1576C4.09688 23.7882 1.25 20.1078 1.25 15.9995V10.852C1.25 5.49828 6.01625 1.14262 11.8744 1.14262H18.1256C23.9844 1.14262 28.75 5.49828 28.75 10.852V15.9995V15.9995Z" fill="black"/>
<path d="M23.26 17.421L19.4187 15.1404C18.9987 14.8907 18.4987 14.8061 18.0094 14.8987C17.5194 14.993 17.0981 15.2575 16.825 15.6431L16.6444 15.8968C14.9819 15.3946 13.1487 14.753 12.0512 11.8491L12.5056 11.488C13.2856 10.8681 13.3675 9.78377 12.6894 9.06963L9.68436 5.90972C9.45811 5.67149 9.06311 5.64692 8.80249 5.85317L6.91561 7.35228C5.26061 8.66743 6.03374 10.6127 6.28811 11.252C6.29936 11.2806 6.31311 11.308 6.32936 11.3349C6.39499 11.4423 7.96186 13.9983 10.4925 16.3544C13.0331 18.7202 17.62 20.9049 17.7606 20.9683C18.2844 21.2791 18.8737 21.4282 19.4569 21.4282C20.4806 21.4282 21.4844 20.9694 22.0831 20.1285L23.4444 18.2123C23.6319 17.9466 23.5494 17.593 23.26 17.421ZM21.0344 19.5057C20.4712 20.2987 19.3075 20.5238 18.3887 19.9822C18.3431 19.9605 13.7862 17.7912 11.3844 15.5546C9.13936 13.4641 7.64874 11.1418 7.44561 10.8178C6.95061 9.54896 7.03811 8.76913 7.73561 8.21496L9.15124 7.09062L11.7462 9.81919C11.9769 10.0614 11.95 10.4156 11.6862 10.6253L10.9194 11.2343C10.7325 11.3829 10.6587 11.6177 10.7319 11.8336C12.0394 15.7174 14.5819 16.4801 16.4381 17.0371L16.7087 17.1188C16.9794 17.2022 17.2756 17.1068 17.4306 16.8886L17.8737 16.2647C17.965 16.1356 18.105 16.0482 18.2675 16.0167C18.4306 15.9848 18.5969 16.0145 18.7381 16.0984L22.0556 18.0677L21.0344 19.5057Z" fill="black"/>
<path d="M16.4269 9.28263C16.0944 9.19522 15.7487 9.37175 15.6544 9.67569C15.56 9.97905 15.7525 10.295 16.0844 10.3813C17.0156 10.6235 17.7575 11.3028 18.02 12.1546C18.0975 12.406 18.3481 12.5711 18.6212 12.5711C18.6775 12.5711 18.7344 12.5642 18.7912 12.5499C19.1231 12.4642 19.3169 12.1489 19.2231 11.8449C18.8437 10.6143 17.7719 9.63227 16.4269 9.28263Z" fill="black"/>
<path d="M21.1831 12.6937C21.2394 12.6937 21.2963 12.6868 21.3531 12.6725C21.6856 12.5868 21.8788 12.2709 21.785 11.9675C21.0475 9.57776 18.9669 7.67187 16.3544 6.99201C16.0225 6.9046 15.6769 7.08228 15.5825 7.38564C15.4881 7.68901 15.6806 8.00494 16.0125 8.09121C18.2106 8.66252 19.9613 10.2673 20.5819 12.2778C20.66 12.5291 20.91 12.6937 21.1831 12.6937Z" fill="black"/>
<path d="M16.085 4.33194C15.7525 4.24453 15.4069 4.42107 15.3125 4.72557C15.2181 5.02894 15.4106 5.34487 15.7425 5.43114C19.4669 6.39951 22.4338 9.1178 23.485 12.5245C23.5625 12.7759 23.8131 12.941 24.0863 12.941C24.1425 12.941 24.1994 12.9341 24.2563 12.9199C24.5881 12.8342 24.7819 12.5182 24.6881 12.2149C23.52 8.4288 20.2238 5.40886 16.085 4.33194Z" fill="black"/>
</svg>
