<?xml version="1.0" encoding="UTF-8"?>
<!DOCTYPE svg PUBLIC "-//W3C//DTD SVG 1.1//EN" "http://www.w3.org/Graphics/SVG/1.1/DTD/svg11.dtd">
<!-- Creator: CorelDRAW X7 -->
<svg xmlns="http://www.w3.org/2000/svg" xml:space="preserve" width="225mm" height="62mm" version="1.1" style="shape-rendering:geometricPrecision; text-rendering:geometricPrecision; image-rendering:optimizeQuality; fill-rule:evenodd; clip-rule:evenodd"
viewBox="0 0 22500 6200"
 xmlns:xlink="http://www.w3.org/1999/xlink">
 <defs>
  <style type="text/css">
   <![CDATA[
    .fil0 {fill:#73D800}
    .fil1 {fill:#73D800;fill-rule:nonzero}
   ]]>
  </style>
 </defs>
 <g id="Слой_x0020_1">
  <metadata id="CorelCorpID_0Corel-Layer"/>
  <path class="fil0" d="M2421 207l171 0 0 0 1481 0c308,0 561,252 561,560l0 0c0,309 -253,561 -561,561l-328 0 0 -2 -1322 0c-715,0 -1300,584 -1300,1299l0 0c0,715 585,1299 1300,1299l82 0 0 1 542 0 0 340c10,113 65,136 167,71 558,-477 836,-716 836,-716 34,-46 34,-94 0,-144 -583,-491 -875,-737 -875,-737 -53,-35 -96,-18 -128,48l0 384 -542 0 -86 0c-304,0 -552,-249 -552,-553l0 0c0,-304 248,-553 552,-553l86 0 467 0 387 0c814,0 1481,666 1481,1481l0 0c0,815 -667,1482 -1481,1482l-533 0 -321 0 -84 0c-1325,0 -2410,-1085 -2410,-2411l0 0c0,-1326 1085,-2410 2410,-2410z"/>
  <path class="fil1" d="M6403 5028c823,0 1484,-644 1484,-1478 0,-834 -661,-1478 -1484,-1478 -824,0 -1484,644 -1484,1478 0,834 660,1478 1484,1478zm0 -817c-364,0 -644,-263 -644,-661 0,-398 280,-661 644,-661 364,0 644,263 644,661 0,398 -280,661 -644,661z"/>
  <path class="fil1" d="M11660 207l-3444 0 0 1020 1192 0 0 3616 1060 0 0 -3616 1192 0 0 -1020zm1026 1914l0 -589 -993 0 0 3311 993 0 0 -1497c0,-655 583,-821 994,-755l0 -1126c-418,0 -861,212 -994,656zm1954 -881c325,0 596,-271 596,-596 0,-324 -271,-596 -596,-596 -324,0 -596,272 -596,596 0,325 272,596 596,596zm-497 3603l994 0 0 -3311 -994 0 0 3311zm3703 -3404c-444,0 -769,152 -987,404l0 -311 -994 0 0 4636 994 0 0 -1636c218,251 543,404 987,404 867,0 1583,-762 1583,-1749 0,-986 -716,-1748 -1583,-1748zm-199 2556c-457,0 -788,-311 -788,-808 0,-496 331,-808 788,-808 457,0 788,312 788,808 0,497 -331,808 -788,808zm3219 -1496c0,-120 106,-186 278,-186 218,0 351,119 444,292l847 -457c-278,-471 -755,-709 -1291,-709 -689,0 -1298,364 -1298,1086 0,1146 1629,954 1629,1318 0,132 -119,205 -358,205 -291,0 -476,-139 -563,-390l-861 490c259,536 762,788 1424,788 716,0 1378,-325 1378,-1086 0,-1226 -1629,-974 -1629,-1351z"/>
 </g>
</svg>
