<svg width="30" height="30" viewBox="0 0 30 30" fill="none" xmlns="http://www.w3.org/2000/svg">
<path d="M13.466 1.36565C13.5149 1.36565 13.5545 1.32603 13.5545 1.27716C13.5545 1.22829 13.5149 1.18867 13.466 1.18867C13.4171 1.18867 13.3775 1.22829 13.3775 1.27716C13.3775 1.32603 13.4171 1.36565 13.466 1.36565Z" fill="#292929"/>
<path d="M13.7239 1.36565C13.7727 1.36565 13.8123 1.32603 13.8123 1.27716C13.8123 1.22829 13.7727 1.18867 13.7239 1.18867C13.675 1.18867 13.6354 1.22829 13.6354 1.27716C13.6354 1.32603 13.675 1.36565 13.7239 1.36565Z" fill="#292929"/>
<path d="M13.9812 1.36565C14.0301 1.36565 14.0697 1.32603 14.0697 1.27716C14.0697 1.22829 14.0301 1.18867 13.9812 1.18867C13.9324 1.18867 13.8928 1.22829 13.8928 1.27716C13.8928 1.32603 13.9324 1.36565 13.9812 1.36565Z" fill="#292929"/>
<path d="M14.2386 1.36565C14.2874 1.36565 14.3271 1.32603 14.3271 1.27716C14.3271 1.22829 14.2874 1.18867 14.2386 1.18867C14.1897 1.18867 14.1501 1.22829 14.1501 1.27716C14.1501 1.32603 14.1897 1.36565 14.2386 1.36565Z" fill="#292929"/>
<path d="M14.4964 1.36565C14.5453 1.36565 14.5849 1.32603 14.5849 1.27716C14.5849 1.22829 14.5453 1.18867 14.4964 1.18867C14.4476 1.18867 14.408 1.22829 14.408 1.27716C14.408 1.32603 14.4476 1.36565 14.4964 1.36565Z" fill="#292929"/>
<path d="M14.7543 1.36565C14.8032 1.36565 14.8428 1.32603 14.8428 1.27716C14.8428 1.22829 14.8032 1.18867 14.7543 1.18867C14.7055 1.18867 14.6658 1.22829 14.6658 1.27716C14.6658 1.32603 14.7055 1.36565 14.7543 1.36565Z" fill="#292929"/>
<path d="M15.0118 1.36565C15.0606 1.36565 15.1003 1.32603 15.1003 1.27716C15.1003 1.22829 15.0606 1.18867 15.0118 1.18867C14.9629 1.18867 14.9233 1.22829 14.9233 1.27716C14.9233 1.32603 14.9629 1.36565 15.0118 1.36565Z" fill="#292929"/>
<path d="M15.2691 1.36565C15.318 1.36565 15.3576 1.32603 15.3576 1.27716C15.3576 1.22829 15.318 1.18867 15.2691 1.18867C15.2203 1.18867 15.1807 1.22829 15.1807 1.27716C15.1807 1.32603 15.2203 1.36565 15.2691 1.36565Z" fill="#292929"/>
<path d="M15.5265 1.36565C15.5753 1.36565 15.615 1.32603 15.615 1.27716C15.615 1.22829 15.5753 1.18867 15.5265 1.18867C15.4776 1.18867 15.438 1.22829 15.438 1.27716C15.438 1.32603 15.4776 1.36565 15.5265 1.36565Z" fill="#292929"/>
<path d="M15.7854 1.36565C15.8343 1.36565 15.8739 1.32603 15.8739 1.27716C15.8739 1.22829 15.8343 1.18867 15.7854 1.18867C15.7366 1.18867 15.697 1.22829 15.697 1.27716C15.697 1.32603 15.7366 1.36565 15.7854 1.36565Z" fill="#292929"/>
<path d="M16.0428 1.36565C16.0916 1.36565 16.1313 1.32603 16.1313 1.27716C16.1313 1.22829 16.0916 1.18867 16.0428 1.18867C15.9939 1.18867 15.9543 1.22829 15.9543 1.27716C15.9543 1.32603 15.9939 1.36565 16.0428 1.36565Z" fill="#292929"/>
<path d="M16.3002 1.36565C16.349 1.36565 16.3886 1.32603 16.3886 1.27716C16.3886 1.22829 16.349 1.18867 16.3002 1.18867C16.2513 1.18867 16.2117 1.22829 16.2117 1.27716C16.2117 1.32603 16.2513 1.36565 16.3002 1.36565Z" fill="#292929"/>
<path d="M16.5575 1.36565C16.6064 1.36565 16.646 1.32603 16.646 1.27716C16.646 1.22829 16.6064 1.18867 16.5575 1.18867C16.5087 1.18867 16.4691 1.22829 16.4691 1.27716C16.4691 1.32603 16.5087 1.36565 16.5575 1.36565Z" fill="#292929"/>
<path d="M16.8154 1.36565C16.8642 1.36565 16.9038 1.32603 16.9038 1.27716C16.9038 1.22829 16.8642 1.18867 16.8154 1.18867C16.7665 1.18867 16.7269 1.22829 16.7269 1.27716C16.7269 1.32603 16.7665 1.36565 16.8154 1.36565Z" fill="#292929"/>
<path d="M21.6498 0H8.39363C7.32214 0 6.45398 0.870927 6.45398 1.94571V28.0542C6.45398 29.129 7.32219 29.9999 8.39363 29.9999H21.6493C22.7208 29.9999 23.589 29.129 23.589 28.0542V1.94571C23.5895 0.870927 22.7213 0 21.6498 0ZM20.2937 1.15545C20.4118 1.15545 20.508 1.25187 20.508 1.37039C20.508 1.48945 20.4113 1.58532 20.2937 1.58532C20.175 1.58532 20.0794 1.4889 20.0794 1.37039C20.0789 1.25187 20.175 1.15545 20.2937 1.15545ZM12.7273 0.969937H17.5178C17.6875 0.969937 17.8241 1.10746 17.8241 1.27655C17.8241 1.4462 17.6875 1.58317 17.5178 1.58317H12.7273C12.5576 1.58317 12.4211 1.44565 12.4211 1.27655C12.4216 1.10752 12.5576 0.969937 12.7273 0.969937ZM10.7729 28.7203H10.3013C10.2697 28.7203 10.2445 28.6944 10.2445 28.6628C10.2445 28.6318 10.2697 28.6054 10.3013 28.6054H10.7729C10.8049 28.6054 10.8301 28.6318 10.8301 28.6628C10.8296 28.6944 10.8044 28.7203 10.7729 28.7203ZM10.7729 28.4894H10.3013C10.2697 28.4894 10.2445 28.4642 10.2445 28.4325C10.2445 28.401 10.2697 28.3751 10.3013 28.3751H10.7729C10.8049 28.3751 10.8301 28.401 10.8301 28.4325C10.8296 28.4642 10.8044 28.4894 10.7729 28.4894ZM11.17 28.6396C11.17 28.7076 11.1153 28.7629 11.0476 28.7629C10.9798 28.7629 10.9247 28.7076 10.9247 28.6396V28.2334H10.1489V28.6396C10.1489 28.7076 10.0943 28.7629 10.0265 28.7629C9.95879 28.7629 9.90365 28.7076 9.90365 28.6396V28.1106C9.90365 28.0427 9.95879 27.9873 10.0265 27.9873H11.0476C11.1153 27.9873 11.17 28.0427 11.17 28.1106V28.6396ZM16.5572 28.6017C16.5572 28.8703 16.3398 29.088 16.0719 29.088H13.9505C13.6821 29.088 13.4652 28.8703 13.4652 28.6017V28.1759C13.4652 27.9072 13.6821 27.6896 13.9505 27.6896H16.0719C16.3398 27.6896 16.5572 27.9072 16.5572 28.1759V28.6017ZM19.7238 28.7861H19.3388C19.2711 28.7861 19.2164 28.7308 19.2164 28.6628C19.2164 28.5948 19.271 28.54 19.3388 28.54H19.7238C19.8068 28.54 19.874 28.4752 19.874 28.3957C19.874 28.3161 19.8068 28.2519 19.7238 28.2519H19.3992C19.3871 28.2687 19.3719 28.2772 19.3446 28.2792C19.3378 28.2829 19.3262 28.2777 19.3179 28.274L19.1177 28.1891C19.0936 28.1786 19.0773 28.1549 19.0773 28.1285C19.0773 28.1022 19.0931 28.0779 19.1172 28.0679L19.3174 27.9831C19.3415 27.9726 19.3704 27.9784 19.3893 27.9973C19.392 28 19.3946 28.0026 19.3967 28.0057H19.7239C19.9419 28.0057 20.1189 28.1812 20.1189 28.3962C20.1187 28.6112 19.9418 28.7861 19.7238 28.7861ZM22.2958 27.0812H7.58529V3.00001H22.2958V27.0812Z" fill="#292929"/>
</svg>
